<?xml version="1.0" encoding="utf-8"?>
<!-- Generator: Adobe Illustrator 21.0.0, SVG Export Plug-In . SVG Version: 6.00 Build 0)  -->
<svg version="1.1" id="Layer_1" xmlns="http://www.w3.org/2000/svg" xmlns:xlink="http://www.w3.org/1999/xlink" x="0px" y="0px"
	 viewBox="0 0 512 328" style="enable-background:new 0 0 512 328;" xml:space="preserve">
<style type="text/css">
	.st0{fill:#FFFFFF;}
	.st1{fill:#DD7FB4;}
</style>
<g>
	<path class="st0" d="M241.3,114.1c1.2-0.9,1.6-1.2,2.1-1.2c0.3,0,0.7,0.3,0.7,0.7c0,0.5-0.2,0.9-1.2,1.7
		c-12.7,10.3-17.9,11.6-22.8,11.6c-9.2,0-8.2-10.4-10.8-10.4s-13.9,15.6-23.6,15.6c-2.6,0-5.4-2.1-5.4-4.3
		c0-14.1,22.4-34.6,35.1-34.6c3,0,5.4,3,5.4,6.1c0,1.7-2.4,5.9-3.6,5.9c-0.5,0-1.2-0.7-1.2-1.4c0-1.2,3-2.3,3-5.4
		c0-1.4-1.4-2.6-3.3-2.6c-8.2,0-28,19.8-28,31.1c0,1.2,0.7,1.9,1.7,1.9c3.5,0,11.8-8,16.7-13.2c4.5-4.9,5.7-6.9,8.3-6.9
		c5.9,0,3.8,14.6,10.8,14.6C227.9,123.3,229.8,123.1,241.3,114.1z"/>
	<path class="st0" d="M267.4,75.5c1.6-2.3,2.8-4.3,3.6-5.7c2.6-4.3,3.8-7.5,4.9-8.7c1.6-1.9,4.3-2.6,5.7-2.6c1.2,0,1.7,0.5,1.7,1.6
		c0,2.8-3.3,8.7-8,15.8c8.5-0.2,12-1.9,13-1.9c0.5,0,1.2,0.5,1.2,1.2c0,0.9-7,2.8-15.6,3c-12,18.1-30.8,43.4-30.8,53.9
		c0,2.4,0.7,3.3,2.4,3.3c3.1,0,19.6-12.2,31.1-21.2c1.2-0.9,1.6-1.2,2.1-1.2c0.3,0,0.7,0.3,0.7,0.7c0,0.5-0.2,0.9-1.2,1.7
		c-12.7,10.3-28.3,21.9-34.7,21.9c-3.8,0-7.3-4-7.3-7.5c0-8.5,19.1-36.1,29.5-51.8c-9.6-0.5-13.2-2.3-13.2-3.3
		c0-1.2,1.9-3.6,2.6-3.6C256,71,259.3,74.3,267.4,75.5z"/>
	<path class="st0" d="M281.1,121.7c3.3-2.4,29.2-27.8,37.5-27.8c1.9,0,4,3.1,4,5c0,6.4-12.3,12-19.8,15.3c-3.1,1.4-5.4,1.4-5.4,2.4
		c0,2.1,4.9,7.3,11.5,7.3c5.7,0,10.2-0.9,21.7-9.9c1.2-0.9,1.6-1.2,2.1-1.2c0.3,0,0.7,0.3,0.7,0.7c0,0.5-0.2,0.9-1.2,1.7
		c-12.7,10.3-19.5,13.2-28,13.2c-12.2,0-13.9-8.9-15.3-8.9c-0.5,0-6.6,5.2-9.2,8.3c-4.2,5-5.9,8.5-7.5,8.5c-1.4,0-3-2.1-3-3
		c0-3.6,10.8-29.2,26.4-53.7c12.3-19.5,28.8-39.4,36.8-39.4c4.7,0,6.4,3.1,6.4,7.1c0,15.8-38.9,50.9-49.5,58.9L281.1,121.7z
		 M332.9,44.2c-5.6,0-33.9,41.9-40,55.8c14.4-11.8,42.6-40.5,42.6-52.6C335.5,44.9,334.8,44.2,332.9,44.2z M316.6,97.9
		c0-0.7-0.3-0.9-0.9-0.9c-1.7,0-17.7,12.5-22.2,17.4C300.3,114.4,316.6,101.4,316.6,97.9z"/>
	<path class="st0" d="M388,114.1c1.2-0.9,1.6-1.2,2.1-1.2c0.3,0,0.7,0.3,0.7,0.7c0,0.5-0.2,0.9-1.2,1.7
		c-12.7,10.3-17.9,11.6-22.8,11.6c-9.2,0-8.2-10.4-10.8-10.4c-2.6,0-13.9,15.6-23.6,15.6c-2.6,0-5.4-2.1-5.4-4.3
		c0-14.1,22.4-34.6,35.1-34.6c3,0,5.4,3,5.4,6.1c0,1.7-2.4,5.9-3.6,5.9c-0.5,0-1.2-0.7-1.2-1.4c0-1.2,3-2.3,3-5.4
		c0-1.4-1.4-2.6-3.3-2.6c-8.2,0-28,19.8-28,31.1c0,1.2,0.7,1.9,1.7,1.9c3.5,0,11.8-8,16.7-13.2c4.5-4.9,5.7-6.9,8.3-6.9
		c5.9,0,3.8,14.6,10.8,14.6C374.6,123.3,376.5,123.1,388,114.1z"/>
	<path class="st0" d="M381.5,89.7c0-0.7,5.2-3.6,6.8-8.2c0.9-2.6,0-6.3,0-10.4c0-3,1.9-5.4,4-5.4c1.9,0,4,2.3,4,5.9
		c0,11.8-11.8,20-13.7,20C381.9,91.6,381.5,90.2,381.5,89.7z"/>
	<path class="st0" d="M404.5,125.9c-2.8,10.1-10.3,19.8-18.6,19.8c-4.3,0-8.9-3.1-8.9-6.9c0-4.7,9.9-7.8,20.8-11.8
		c1.4-6.9,2.1-14.9,2.8-21.5c-4.2,4.2-9.2,8.2-14.2,12.2c-0.9,0.7-1.2,0.9-1.6,0.9c-0.5,0-0.9-0.3-0.9-0.9c0-0.3,0.3-0.7,1.4-1.6
		c5.6-4.2,11.1-8.7,15.6-13.2c0-1,0.2-1.9,0.3-2.8c0.7-5.2,6.8-9.6,10.9-9.6c1,0,1.6,0.9,1.6,1.9c0,1.7-5,7.3-8.2,10.6
		c0.2,4.2,0.2,9.9,0.2,14.2c0,2.3-0.3,4.5-0.9,6.8c4.7-2.1,9-4.7,12.5-7.5c1.2-0.9,1.6-1.2,2.1-1.2c0.3,0,0.7,0.3,0.7,0.7
		c0,0.5-0.2,0.9-1.2,1.7C415,121.1,409.9,123.7,404.5,125.9z M386.1,143.8c5.9,0,9.4-6.6,11.3-15.1c-8.9,3.3-16.3,6.1-16.3,10.6
		C381.1,141.9,383.3,143.8,386.1,143.8z"/>
	<path class="st0" d="M300.9,189.3c1.2-0.9,1.6-1.2,2.1-1.2c0.3,0,0.7,0.3,0.7,0.7c0,0.5-0.2,0.9-1.2,1.7
		c-12.7,10.3-12.1,14.5-17,14.5c-9.2,0-14-13.3-16.6-13.3c-2.6,0-13.9,15.6-23.6,15.6c-2.6,0-5.4-2.1-5.4-4.3
		c0-14.1,22.4-34.6,35.1-34.6c3,0,5.4,3,5.4,6.1c0,1.7-2.4,5.9-3.6,5.9c-0.5,0-1.2-0.7-1.2-1.4c0-1.2,3-2.3,3-5.4
		c0-1.4-1.4-2.6-3.3-2.6c-8.2,0-28,19.8-28,31.1c0,1.2,0.7,1.9,1.7,1.9c3.5,0,11.8-8,16.7-13.2c4.5-4.9,5.7-6.9,8.3-6.9
		c5.9,0,3.8,14.6,10.8,14.6C287.6,198.5,289.5,198.4,300.9,189.3z"/>
	<path class="st0" d="M348.3,188.1c0.3,0,0.7,0.3,0.7,0.7c0,0.5-0.2,0.9-1.2,1.7c-12.7,10.3-21.9,17.9-30.4,17.9
		c-4.3,0-9.6-1.6-9.6-7.8c0-9.4,15.1-17.2,15.1-19.3c0-0.9-2.3-2.3-4.5-4.5c-4.7,4.9-10.4,9.7-16.2,14.1c-0.9,0.7-1.2,0.9-1.6,0.9
		c-0.5,0-0.9-0.3-0.9-0.9c0-0.3,0.3-0.7,1.4-1.6c5.6-4.2,11.5-9,16.2-13.7c-2.1-2.3-3.8-5.2-3.8-9c0-7.1,8.7-13.6,13.2-13.6
		c2.1,0,3.8,2.3,3.8,4.7c0,4.3-3.5,9.6-8.5,15.3c1.6,4.3,4.5,6.1,4.5,8.2c0,4.7-10.9,12.3-10.9,21c0,2.6,1.6,3.8,4,3.8
		c5.7,0,15.1-7.6,26.6-16.7C347.4,188.5,347.8,188.1,348.3,188.1z M321.7,170.7c3.8-4.5,6.3-8.9,6.3-12.2c0-1.7-0.5-2.8-2.3-2.8
		c-1.9,0-4.3,3-4.3,11.5C321.4,168.7,321.5,169.7,321.7,170.7z"/>
	<path class="st0" d="M367.3,185.3c5.9-7.3,12-15.5,12-22.4c0-1.6,3.1-4.2,4.7-4.2c0.9,0,1.2,0.5,1.2,1.4
		c0,14.1-31.3,45.7-41.3,45.7c-1.7,0-4.2-1.7-4.2-3.1c0-2.4,16.3-24,16.3-33.2c0-3.3-1.2-3.6-1.2-4.3c0-0.3,0.3-0.7,0.7-0.7
		c1.4,0,5.9,4.2,5.9,8.3c0,7.5-13.9,26.8-13.9,29.4C349.6,202.2,359.5,194.9,367.3,185.3z"/>
	<path class="st0" d="M389,188.6v2.6c0,3.3,1.9,7.8,9.6,7.8c4,0,10.1-0.7,21.5-9.7c1.2-0.9,1.6-1.2,2.1-1.2c0.3,0,0.7,0.3,0.7,0.7
		c0,0.5-0.2,0.9-1.2,1.7c-12.7,10.3-20.5,12.7-27.3,12.7c-8.5,0-13.6-5-13.6-12.7c0-10.4,11.5-25,20.7-25c3,0,5.7,3.1,5.7,5.7
		C407.2,175.6,395.7,184.8,389,188.6z M404.1,170.9c0-1-0.7-1.9-1.9-1.9c-5,0-12.7,12.7-12.7,17.2
		C391.4,185.7,404.1,174.7,404.1,170.9z"/>
	<path class="st0" d="M458.3,189.3c1.2-0.9,1.6-1.2,2.1-1.2c0.3,0,0.7,0.3,0.7,0.7c0,0.5-0.2,0.9-1.2,1.7
		c-9.2,7.6-24.2,17.7-32.7,17.7c-4.2,0-8.2-3-8.2-8.7c0-19.1,43.4-79.9,61-79.9c2.6,0,4.5,1.6,4.5,4.3c0,19.5-44.3,56.1-53,62
		c-2.6,3.1-4.3,10.1-4.3,14.9c0,3,1.4,4.2,3.5,4.2C434.2,205.1,446.9,198.4,458.3,189.3z M432.6,182.4
		c15.3-11.8,48.6-43.1,48.6-57.2c0-1.9-0.7-2.3-1.9-2.3C472.4,123,438,169.7,432.6,182.4z"/>
	<path class="st0" d="M478.2,198.7c-2.8,10.1-10.3,19.8-18.6,19.8c-4.3,0-8.9-3.1-8.9-6.9c0-4.7,9.9-7.8,20.8-11.8
		c1.4-6.9,2.1-14.9,2.8-21.5c-4.2,4.2-9.2,8.2-14.2,12.2c-0.9,0.7-1.2,0.9-1.6,0.9c-0.5,0-0.9-0.3-0.9-0.9c0-0.3,0.3-0.7,1.4-1.6
		c5.6-4.2,11.1-8.7,15.6-13.2c0-1,0.2-1.9,0.3-2.8c0.7-5.2,6.8-9.6,10.9-9.6c1,0,1.6,0.9,1.6,1.9c0,1.7-5,7.3-8.2,10.6
		c0.2,4.2,0.2,9.9,0.2,14.2c0,2.3-0.3,4.5-0.9,6.8c4.7-2.1,9-4.7,12.5-7.5c1.2-0.9,1.6-1.2,2.1-1.2c0.3,0,0.7,0.3,0.7,0.7
		c0,0.5-0.2,0.9-1.2,1.7C488.7,193.8,483.6,196.5,478.2,198.7z M459.8,216.6c5.9,0,9.4-6.6,11.3-15.1c-8.9,3.3-16.3,6.1-16.3,10.6
		C454.8,214.7,457,216.6,459.8,216.6z"/>
</g>
<path class="st0" d="M241.4,237.7c-0.7,0-3.3,8.3-9.4,8.3c-2.1,0-3.8-1.9-3.8-6.3c0-21.4,4.9-43.4,10.8-61.5
	c14.6-16,25.5-30.6,25.5-39.1c0-2.1-1.9-4.2-4.5-4.2c-11.3,0-26.6,25.5-35.3,54c-4,4.2-8.2,8.3-12.3,12.3c-4.9,4.7-9.7,9-14.4,13
	v-1.7c0-25.9-0.3-37.9-0.3-51.3c0-13.4,9.7-18.1,9.7-24.1c0-2.8-1.7-4.9-3.6-4.9c-7.3,0-13.7,13-13.7,27.3
	c-19.1,34.9-55.2,99.4-79.9,99.4c-18.6,0-25.9-24.3-26.9-41.5c-0.3-4.3,1.5-23.4,1.5-23.4c-0.9-15,10.6-16.9,11.2-59.8
	c19.4-18.7,22.9-36.3,36.6-61c-0.9,15.6-0.7,42.7-0.7,50v0.5c-11.6,10.1-20.5,18.8-20.5,27.8c0,3.3,2.6,6.6,6.4,6.6
	c12,0,21.5-20,23.3-37.9c4.3-4,9-8.2,13.7-12.7c3.8-3.8,8-7.6,11.8-11.6c-3.3,12.2-5.2,24.3-5.2,35.3c0,14.6,6.4,19.8,12,19.8
	c6.3,0,12.9-8.5,12.9-10.6c0-0.5-0.7-1.4-1.4-1.4c-0.7,0-3.3,8.3-9.4,8.3c-2.1,0-3.8-1.9-3.8-6.3c0-21.4,4.9-43.4,10.8-61.5
	c14.6-16,25.5-30.6,25.5-39.1c0-2.1-1.9-4.2-4.5-4.2c-11.3,0-26.6,25.5-35.3,54c-4,4.2-8.2,8.3-12.3,12.3c-4.9,4.7-9.7,9-14.4,13
	v-1.7c0-25.9-0.3-37.9-0.3-51.3s9.7-18.1,9.7-24.1c0-2.8-1.7-4.9-3.6-4.9c-7.3,0-13.7,13-13.7,27.3c-12.8,23.5-18,41.5-37.6,63.1
	c0.3-19.5,0.2-53.6-45.5-64.7l2.6,8.5c23.7,9.5,35.1,31.2,32.9,66.8c-7.3,6.9-19.3,8.2-25.6,8.2c-24.2,0-34.7-18.9-34.7-43.4
	c0-21.4,12.4-28.3,21.9-30.8l-2.4-9.3C33.2,62.3,18,80.8,18,109.2c0,28,13.1,46.7,36.6,46.7c8,0,22.4-5,30.5-11.4
	c-4.5,17.8-11,35.5-12.9,50.9c-4.2,34.2,2.7,67.6,34.9,67.5c29.9-0.1,61.3-53.3,82.2-91c-0.9,15.6-0.7,42.7-0.7,50v0.5
	c-11.6,10.1-20.5,18.8-20.5,27.8c0,3.3,2.6,6.6,6.4,6.6c12,0,21.5-20,23.3-37.9c4.3-4,9-8.2,13.7-12.7c3.8-3.8,8-7.6,11.8-11.6
	c-3.3,12.2-5.2,24.3-5.2,35.3c0,14.6,6.4,19.8,12,19.8c6.3,0,12.9-8.5,12.9-10.6C242.8,238.6,242.1,237.7,241.4,237.7z M260,138.3
	c0.7,0,1.2,0.5,1.2,1.2c0,6.8-8.2,18.4-19.8,31.8C248.5,151.9,256.7,138.3,260,138.3z M118.1,154.2c-1.9,0-3.1-1.6-3.1-3.5
	c0-6.1,6.6-13,16.3-21.9C129.8,141.5,123.2,154.2,118.1,154.2z M203.2,39.9c0.7,0,1.2,0.5,1.2,1.2c0,6.8-8.2,18.4-19.8,31.8
	C191.8,53.4,199.9,39.9,203.2,39.9z M174.9,252.6c-1.9,0-3.1-1.6-3.1-3.5c0-6.1,6.6-13,16.3-21.9C186.5,240,179.9,252.6,174.9,252.6
	z"/>
<path class="st1" d="M63.2,62.5c-5.1-22.4-12.4-36.8-19.3-35c-14.5,3.9,13.3,67.3,39.9,152.7c5.6,17.8,28,82.9,44.2,129.5
	c0.4,1.3,2.3,0.7,2-0.6c-12.6-47.9-31.1-112.4-36-130.3C72,98.1,63.2,62.5,63.2,62.5z M66.3,102.2c0,0-6.5-14.6-12.2-33.3
	c-5.6-18.6-8.6-31-6.4-31.5c2.2-0.6,4.8,8.7,10.6,29.3C63.4,84.3,66.3,102.2,66.3,102.2z"/>
<path class="st0" d="M102.1,257.4c0,0,9.1,4.2,19.7-2.3l1.7,2c0,0-9,7.5-20.4,5.5L102.1,257.4z"/>
<path class="st0" d="M74.2,84.2l7.6-7.7c0,0-12.5-17.6-30.6-17.5l2.9,9.9C54.1,68.9,65.9,73,74.2,84.2z"/>
</svg>
